<?xml version="1.0" encoding="UTF-8"?>
<svg xmlns="http://www.w3.org/2000/svg" viewBox="0 0 1180 570" width="1180" height="570">
  <rect width="1180" height="570" rx="12" fill="#F8FAFC" stroke="#0891B2" stroke-width="1.5"/>
  <text x="24" y="32" font-family="monospace" font-size="14" font-weight="bold" fill="#0891B2">PROJECTS.LIST</text>
  <text x="160" y="32" font-family="monospace" font-size="12" fill="#64748B">./projects.sh --all</text>
  
        <g transform="translate(10, 55)">
          <rect width="570" height="160" rx="10" fill="#FFFFFF" stroke="#CBD5E1" stroke-width="1.2" stroke-opacity="1.0"/>
          <circle cx="20" cy="22" r="3" fill="#0891B2"/>
          <text x="32" y="25" font-family="monospace" font-size="11" fill="#64748B">Guru006-Dev/Pariksha</text>
          
          <!-- 3D Colorful Logo Icon -->
          <g transform="translate(20, 42)">
            
              <defs>
                <linearGradient id="g1" x1="0%" y1="0%" x2="100%" y2="100%">
                  <stop offset="0%" stop-color="#0284C7"/>
                  <stop offset="100%" stop-color="#22D3EE"/>
                </linearGradient>
              </defs>
              <rect width="50" height="50" rx="12" fill="url(#g1)"/>
              <path d="M25 10L14 15v8c0 7.55 4.7 14.6 11 16.35 6.3-1.75 11-8.8 11-16.35v-8L25 10zm-2 21l-6-6 2.12-2.12L23 24.76l8.88-8.88L34 18l-11 13z" fill="#FFFFFF"/>
            
          </g>
          
          <text x="85" y="55" font-family="monospace" font-size="15" font-weight="bold" fill="#0F172A">Pariksha_</text>
          <text x="85" y="75" font-family="monospace" font-size="11" fill="#64748B">Secure AI Examination &amp; Anti-Cheat Portal</text>
          
          
              <rect x="85" y="95" width="51" height="20" rx="10" fill="#F1F5F9"/>
              <text x="110.5" y="109" font-family="monospace" font-size="10" fill="#7C3AED" text-anchor="middle">React</text>
            
              <rect x="144" y="95" width="65" height="20" rx="10" fill="#F1F5F9"/>
              <text x="176.5" y="109" font-family="monospace" font-size="10" fill="#7C3AED" text-anchor="middle">Node.js</text>
            
              <rect x="217" y="95" width="65" height="20" rx="10" fill="#F1F5F9"/>
              <text x="249.5" y="109" font-family="monospace" font-size="10" fill="#7C3AED" text-anchor="middle">MongoDB</text>
            
          
          <g transform="translate(500, 75)">
            <circle cx="0" cy="0" r="28" fill="none" stroke="#CBD5E1" stroke-width="6" stroke-opacity="0.3"/>
            <circle cx="0" cy="0" r="28" fill="none" stroke="#0891B2" stroke-width="6"
                    stroke-dasharray="175.9" stroke-dashoffset="24.6"
                    transform="rotate(-90)"/>
            <text x="0" y="5" font-family="monospace" font-size="12" font-weight="bold" fill="#0F172A" text-anchor="middle">86%</text>
          </g>
          <text x="500" y="122" font-family="monospace" font-size="9" fill="#94A3B8" text-anchor="middle">TS 86% · React 9% · CSS 5%</text>
          
          <text x="85" y="138" font-family="monospace" font-size="10" fill="#0891B2">★ 3</text>
          <text x="120" y="138" font-family="monospace" font-size="10" fill="#94A3B8">updated 2d ago</text>
        </g>
        
        <g transform="translate(600, 55)">
          <rect width="570" height="160" rx="10" fill="#FFFFFF" stroke="#CBD5E1" stroke-width="1.2" stroke-opacity="1.0"/>
          <circle cx="20" cy="22" r="3" fill="#0891B2"/>
          <text x="32" y="25" font-family="monospace" font-size="11" fill="#64748B">Guru006-Dev/HealthHub</text>
          
          <!-- 3D Colorful Logo Icon -->
          <g transform="translate(20, 42)">
            
              <defs>
                <linearGradient id="g2" x1="0%" y1="0%" x2="100%" y2="100%">
                  <stop offset="0%" stop-color="#7C3AED"/>
                  <stop offset="100%" stop-color="#A78BFA"/>
                </linearGradient>
              </defs>
              <rect width="50" height="50" rx="12" fill="url(#g2)"/>
              <path d="M34 13H16c-1.65 0-3 1.35-3 3v18c0 1.65 1.35 3 3 3h18c1.65 0 3-1.35 3-3V16c0-1.65-1.35-3-3-3zm-2 12h-5v5h-4v-5h-5v-4h5v-5h4v5h5v4z" fill="#FFFFFF"/>
            
          </g>
          
          <text x="85" y="55" font-family="monospace" font-size="15" font-weight="bold" fill="#0F172A">HealthHub_</text>
          <text x="85" y="75" font-family="monospace" font-size="11" fill="#64748B">Healthcare Telemedicine &amp; Records Platform</text>
          
          
              <rect x="85" y="95" width="65" height="20" rx="10" fill="#F1F5F9"/>
              <text x="117.5" y="109" font-family="monospace" font-size="10" fill="#7C3AED" text-anchor="middle">Flutter</text>
            
              <rect x="158" y="95" width="44" height="20" rx="10" fill="#F1F5F9"/>
              <text x="180.0" y="109" font-family="monospace" font-size="10" fill="#7C3AED" text-anchor="middle">Dart</text>
            
              <rect x="210" y="95" width="72" height="20" rx="10" fill="#F1F5F9"/>
              <text x="246.0" y="109" font-family="monospace" font-size="10" fill="#7C3AED" text-anchor="middle">Firebase</text>
            
          
          <g transform="translate(500, 75)">
            <circle cx="0" cy="0" r="28" fill="none" stroke="#CBD5E1" stroke-width="6" stroke-opacity="0.3"/>
            <circle cx="0" cy="0" r="28" fill="none" stroke="#0891B2" stroke-width="6"
                    stroke-dasharray="175.9" stroke-dashoffset="38.7"
                    transform="rotate(-90)"/>
            <text x="0" y="5" font-family="monospace" font-size="12" font-weight="bold" fill="#0F172A" text-anchor="middle">78%</text>
          </g>
          <text x="500" y="122" font-family="monospace" font-size="9" fill="#94A3B8" text-anchor="middle">Dart 78% · C++ 12% · HTML 10%</text>
          
          <text x="85" y="138" font-family="monospace" font-size="10" fill="#0891B2">★ 4</text>
          <text x="120" y="138" font-family="monospace" font-size="10" fill="#94A3B8">updated 5d ago</text>
        </g>
        
        <g transform="translate(10, 231)">
          <rect width="570" height="160" rx="10" fill="#FFFFFF" stroke="#CBD5E1" stroke-width="1.2" stroke-opacity="1.0"/>
          <circle cx="20" cy="22" r="3" fill="#0891B2"/>
          <text x="32" y="25" font-family="monospace" font-size="11" fill="#64748B">Guru006-Dev/SecurePass</text>
          
          <!-- 3D Colorful Logo Icon -->
          <g transform="translate(20, 42)">
            
              <defs>
                <linearGradient id="g3" x1="0%" y1="0%" x2="100%" y2="100%">
                  <stop offset="0%" stop-color="#059669"/>
                  <stop offset="100%" stop-color="#10B981"/>
                </linearGradient>
              </defs>
              <rect width="50" height="50" rx="12" fill="url(#g3)"/>
              <path d="M33 20h-2v-4c0-3.87-3.13-7-7-7s-7 3.13-7 7v4h-2c-1.1 0-2 .9-2 2v14c0 1.1.9 2 2 2h18c1.1 0 2-.9 2-2V22c0-1.1-.9-2-2-2zm-9 12c-1.66 0-3-1.34-3-3s1.34-3 3-3 3 1.34 3 3-1.34 3-3 3zm4.1-12H18.9v-4c0-2.81 2.29-5.1 5.1-5.1 2.81 0 5.1 2.29 5.1 5.1v4z" fill="#FFFFFF"/>
            
          </g>
          
          <text x="85" y="55" font-family="monospace" font-size="15" font-weight="bold" fill="#0F172A">SecurePass_</text>
          <text x="85" y="75" font-family="monospace" font-size="11" fill="#64748B">Zero-Knowledge Password Manager &amp; Vault</text>
          
          
              <rect x="85" y="95" width="58" height="20" rx="10" fill="#F1F5F9"/>
              <text x="114.0" y="109" font-family="monospace" font-size="10" fill="#7C3AED" text-anchor="middle">Python</text>
            
              <rect x="151" y="95" width="37" height="20" rx="10" fill="#F1F5F9"/>
              <text x="169.5" y="109" font-family="monospace" font-size="10" fill="#7C3AED" text-anchor="middle">C++</text>
            
              <rect x="196" y="95" width="58" height="20" rx="10" fill="#F1F5F9"/>
              <text x="225.0" y="109" font-family="monospace" font-size="10" fill="#7C3AED" text-anchor="middle">SQLite</text>
            
          
          <g transform="translate(500, 75)">
            <circle cx="0" cy="0" r="28" fill="none" stroke="#CBD5E1" stroke-width="6" stroke-opacity="0.3"/>
            <circle cx="0" cy="0" r="28" fill="none" stroke="#0891B2" stroke-width="6"
                    stroke-dasharray="175.9" stroke-dashoffset="14.1"
                    transform="rotate(-90)"/>
            <text x="0" y="5" font-family="monospace" font-size="12" font-weight="bold" fill="#0F172A" text-anchor="middle">92%</text>
          </g>
          <text x="500" y="122" font-family="monospace" font-size="9" fill="#94A3B8" text-anchor="middle">Python 92% · C++ 5% · SQL 3%</text>
          
          <text x="85" y="138" font-family="monospace" font-size="10" fill="#0891B2">★ 5</text>
          <text x="120" y="138" font-family="monospace" font-size="10" fill="#94A3B8">updated 1w ago</text>
        </g>
        
        <g transform="translate(600, 231)">
          <rect width="570" height="160" rx="10" fill="#FFFFFF" stroke="#CBD5E1" stroke-width="1.2" stroke-opacity="1.0"/>
          <circle cx="20" cy="22" r="3" fill="#0891B2"/>
          <text x="32" y="25" font-family="monospace" font-size="11" fill="#64748B">Guru006-Dev/NitroStack</text>
          
          <!-- 3D Colorful Logo Icon -->
          <g transform="translate(20, 42)">
            
              <defs>
                <linearGradient id="g4" x1="0%" y1="0%" x2="100%" y2="100%">
                  <stop offset="0%" stop-color="#D97706"/>
                  <stop offset="100%" stop-color="#F59E0B"/>
                </linearGradient>
              </defs>
              <rect width="50" height="50" rx="12" fill="url(#g4)"/>
              <path d="M16 11v14h5v14l13-18h-7l7-10z" fill="#FFFFFF"/>
            
          </g>
          
          <text x="85" y="55" font-family="monospace" font-size="15" font-weight="bold" fill="#0F172A">NitroStack_</text>
          <text x="85" y="75" font-family="monospace" font-size="11" fill="#64748B">High-Performance Full-Stack Starter Engine</text>
          
          
              <rect x="85" y="95" width="86" height="20" rx="10" fill="#F1F5F9"/>
              <text x="128.0" y="109" font-family="monospace" font-size="10" fill="#7C3AED" text-anchor="middle">TypeScript</text>
            
              <rect x="179" y="95" width="65" height="20" rx="10" fill="#F1F5F9"/>
              <text x="211.5" y="109" font-family="monospace" font-size="10" fill="#7C3AED" text-anchor="middle">Express</text>
            
              <rect x="252" y="95" width="51" height="20" rx="10" fill="#F1F5F9"/>
              <text x="277.5" y="109" font-family="monospace" font-size="10" fill="#7C3AED" text-anchor="middle">Redis</text>
            
          
          <g transform="translate(500, 75)">
            <circle cx="0" cy="0" r="28" fill="none" stroke="#CBD5E1" stroke-width="6" stroke-opacity="0.3"/>
            <circle cx="0" cy="0" r="28" fill="none" stroke="#0891B2" stroke-width="6"
                    stroke-dasharray="175.9" stroke-dashoffset="28.1"
                    transform="rotate(-90)"/>
            <text x="0" y="5" font-family="monospace" font-size="12" font-weight="bold" fill="#0F172A" text-anchor="middle">84%</text>
          </g>
          <text x="500" y="122" font-family="monospace" font-size="9" fill="#94A3B8" text-anchor="middle">TS 84% · Docker 10% · JS 6%</text>
          
          <text x="85" y="138" font-family="monospace" font-size="10" fill="#0891B2">★ 2</text>
          <text x="120" y="138" font-family="monospace" font-size="10" fill="#94A3B8">updated 2w ago</text>
        </g>
        
        <g transform="translate(10, 407)">
          <rect width="570" height="160" rx="10" fill="#FFFFFF" stroke="#CBD5E1" stroke-width="1.2" stroke-opacity="1.0"/>
          <circle cx="20" cy="22" r="3" fill="#0891B2"/>
          <text x="32" y="25" font-family="monospace" font-size="11" fill="#64748B">Guru006-Dev/Zoomcab</text>
          
          <!-- 3D Colorful Logo Icon -->
          <g transform="translate(20, 42)">
            
              <defs>
                <linearGradient id="g5" x1="0%" y1="0%" x2="100%" y2="100%">
                  <stop offset="0%" stop-color="#2563EB"/>
                  <stop offset="100%" stop-color="#60A5FA"/>
                </linearGradient>
              </defs>
              <rect width="50" height="50" rx="12" fill="url(#g5)"/>
              <path d="M34.84 17.02c-.34-1.01-1.29-1.72-2.42-1.72H17.58c-1.13 0-2.08.71-2.42 1.72L12 25v13c0 .92.75 1.67 1.67 1.67h1.67c.92 0 1.66-.75 1.66-1.67v-1.67h16V38c0 .92.75 1.67 1.67 1.67h1.67c.92 0 1.66-.75 1.66-1.67V25l-3.17-7.98zM18.42 18.67h13.16l1.75 5H16.67l1.75-5z" fill="#FFFFFF"/>
            
          </g>
          
          <text x="85" y="55" font-family="monospace" font-size="15" font-weight="bold" fill="#0F172A">Zoomcab_</text>
          <text x="85" y="75" font-family="monospace" font-size="11" fill="#64748B">Real-time Ride Hailing &amp; Fleet Tracker</text>
          
          
              <rect x="85" y="95" width="65" height="20" rx="10" fill="#F1F5F9"/>
              <text x="117.5" y="109" font-family="monospace" font-size="10" fill="#7C3AED" text-anchor="middle">Flutter</text>
            
              <rect x="158" y="95" width="65" height="20" rx="10" fill="#F1F5F9"/>
              <text x="190.5" y="109" font-family="monospace" font-size="10" fill="#7C3AED" text-anchor="middle">Node.js</text>
            
              <rect x="231" y="95" width="79" height="20" rx="10" fill="#F1F5F9"/>
              <text x="270.5" y="109" font-family="monospace" font-size="10" fill="#7C3AED" text-anchor="middle">Socket.io</text>
            
          
          <g transform="translate(500, 75)">
            <circle cx="0" cy="0" r="28" fill="none" stroke="#CBD5E1" stroke-width="6" stroke-opacity="0.3"/>
            <circle cx="0" cy="0" r="28" fill="none" stroke="#0891B2" stroke-width="6"
                    stroke-dasharray="175.9" stroke-dashoffset="45.7"
                    transform="rotate(-90)"/>
            <text x="0" y="5" font-family="monospace" font-size="12" font-weight="bold" fill="#0F172A" text-anchor="middle">74%</text>
          </g>
          <text x="500" y="122" font-family="monospace" font-size="9" fill="#94A3B8" text-anchor="middle">Dart 74% · JS 16% · HTML 10%</text>
          
          <text x="85" y="138" font-family="monospace" font-size="10" fill="#0891B2">★ 2</text>
          <text x="120" y="138" font-family="monospace" font-size="10" fill="#94A3B8">updated 3w ago</text>
        </g>
        
        <g transform="translate(600, 407)">
          <rect width="570" height="160" rx="10" fill="#FFFFFF" stroke="#CBD5E1" stroke-width="1.2" stroke-opacity="1.0"/>
          <circle cx="20" cy="22" r="3" fill="#0891B2"/>
          <text x="32" y="25" font-family="monospace" font-size="11" fill="#64748B">Guru006-Dev/CareerLogic-AI</text>
          
          <!-- 3D Colorful Logo Icon -->
          <g transform="translate(20, 42)">
            
              <defs>
                <linearGradient id="g6" x1="0%" y1="0%" x2="100%" y2="100%">
                  <stop offset="0%" stop-color="#DB2777"/>
                  <stop offset="100%" stop-color="#F472B6"/>
                </linearGradient>
              </defs>
              <rect width="50" height="50" rx="12" fill="url(#g6)"/>
              <path d="M25 10l4.47 10.53L40 22l-8.68 7.53L33.94 40 25 34.07 16.06 40l2.62-10.47L10 22l10.53-1.47L25 10z" fill="#FFFFFF"/>
            
          </g>
          
          <text x="85" y="55" font-family="monospace" font-size="15" font-weight="bold" fill="#0F172A">CareerLogic-AI_</text>
          <text x="85" y="75" font-family="monospace" font-size="11" fill="#64748B">AI Resume Analyzer &amp; Assessment System</text>
          
          
              <rect x="85" y="95" width="51" height="20" rx="10" fill="#F1F5F9"/>
              <text x="110.5" y="109" font-family="monospace" font-size="10" fill="#7C3AED" text-anchor="middle">React</text>
            
              <rect x="144" y="95" width="58" height="20" rx="10" fill="#F1F5F9"/>
              <text x="173.0" y="109" font-family="monospace" font-size="10" fill="#7C3AED" text-anchor="middle">Python</text>
            
              <rect x="210" y="95" width="58" height="20" rx="10" fill="#F1F5F9"/>
              <text x="239.0" y="109" font-family="monospace" font-size="10" fill="#7C3AED" text-anchor="middle">Gemini</text>
            
          
          <g transform="translate(500, 75)">
            <circle cx="0" cy="0" r="28" fill="none" stroke="#CBD5E1" stroke-width="6" stroke-opacity="0.3"/>
            <circle cx="0" cy="0" r="28" fill="none" stroke="#0891B2" stroke-width="6"
                    stroke-dasharray="175.9" stroke-dashoffset="21.1"
                    transform="rotate(-90)"/>
            <text x="0" y="5" font-family="monospace" font-size="12" font-weight="bold" fill="#0F172A" text-anchor="middle">88%</text>
          </g>
          <text x="500" y="122" font-family="monospace" font-size="9" fill="#94A3B8" text-anchor="middle">Python 88% · TS 8% · CSS 4%</text>
          
          <text x="85" y="138" font-family="monospace" font-size="10" fill="#0891B2">★ 6</text>
          <text x="120" y="138" font-family="monospace" font-size="10" fill="#94A3B8">updated 1mo ago</text>
        </g>
        
</svg>